<svg width="32" height="32" viewBox="0 0 32 32" fill="none" xmlns="http://www.w3.org/2000/svg">
  <rect width="32" height="32" rx="8" fill="url(#gradient)"/>
  
  <!-- Pink Salt Crystal Shape -->
  <path d="M16 6L20 10L18 14L22 18L16 22L10 18L14 14L12 10L16 6Z" fill="white" opacity="0.95"/>
  <path d="M16 8L18.5 11L17 13.5L19.5 16.5L16 20L12.5 16.5L15 13.5L13.5 11L16 8Z" fill="url(#crystalGradient)"/>
  
  <!-- Small crystal details -->
  <circle cx="16" cy="12" r="1" fill="white" opacity="0.8"/>
  <circle cx="14" cy="16" r="0.8" fill="white" opacity="0.6"/>
  <circle cx="18" cy="16" r="0.8" fill="white" opacity="0.6"/>
  
  <!-- Sparkle effects -->
  <path d="M8 8L9 9L8 10L7 9L8 8Z" fill="white" opacity="0.7"/>
  <path d="M24 6L25 7L24 8L23 7L24 6Z" fill="white" opacity="0.7"/>
  <path d="M26 24L27 25L26 26L25 25L26 24Z" fill="white" opacity="0.7"/>
  
  <defs>
    <linearGradient id="gradient" x1="0" y1="0" x2="32" y2="32" gradientUnits="userSpaceOnUse">
      <stop stop-color="#EC4899"/>
      <stop offset="0.5" stop-color="#F43F5E"/>
      <stop offset="1" stop-color="#E11D48"/>
    </linearGradient>
    <linearGradient id="crystalGradient" x1="12" y1="8" x2="20" y2="20" gradientUnits="userSpaceOnUse">
      <stop stop-color="#FDF2F8"/>
      <stop offset="0.3" stop-color="#FCE7F3"/>
      <stop offset="0.7" stop-color="#FBCFE8"/>
      <stop offset="1" stop-color="#F9A8D4"/>
    </linearGradient>
  </defs>
</svg>